name C:/MyDriveSym/Projects/mobilecap/Data\Session20210813_0001\mocap\ForceDataProcessed\DJAsym4_forces.mot
datacolumns 28
datarows 6
range 1.27950000 1.28200000
endheader 
time	R_ground_force_vx	R_ground_force_vy	R_ground_force_vz	R_ground_force_px	R_ground_force_py	R_ground_force_pz	R_ground_torque_x	R_ground_torque_y	R_ground_torque_z	L_ground_force_vx	L_ground_force_vy	L_ground_force_vz	L_ground_force_px	L_ground_force_py	L_ground_force_pz	L_ground_torque_x	L_ground_torque_y	L_ground_torque_z	3_ground_force_vx	3_ground_force_vy	3_ground_force_vz	3_ground_force_px	3_ground_force_py	3_ground_force_pz	3_ground_torque_x	3_ground_torque_y	3_ground_torque_z	
          1.27950000	        -59.04721600	        610.32685400	        -51.02736800	         -0.13658500	          0.00600000	         -0.33084900	          0.00000000	         -9.75965900	          0.00000000	        -38.84737400	        658.12758000	         75.83214800	         -0.08898600	          0.00600000	         -0.81759100	          0.00000000	          0.29451300	          0.00000000	          0.00000000	          0.00000000	          0.00000000	          0.00000000	          0.00000000	          0.00000000	          0.00000000	          0.00000000	          0.00000000	
          1.28000000	        -59.18769300	        608.73155000	        -50.79146200	         -0.13653900	          0.00600000	         -0.33090900	          0.00000000	         -9.77444700	          0.00000000	        -39.21639300	        658.11070300	         75.63440400	         -0.08894300	          0.00600000	         -0.81758600	          0.00000000	          0.33102600	          0.00000000	          0.00000000	          0.00000000	          0.00000000	          0.00000000	          0.00000000	          0.00000000	          0.00000000	          0.00000000	          0.00000000	
          1.28050000	        -59.32139100	        607.15677100	        -50.56168500	         -0.13649400	          0.00600000	         -0.33097000	          0.00000000	         -9.78884300	          0.00000000	        -39.60755900	        658.04418300	         75.42962000	         -0.08889500	          0.00600000	         -0.81758100	          0.00000000	          0.36787800	          0.00000000	          0.00000000	          0.00000000	          0.00000000	          0.00000000	          0.00000000	          0.00000000	          0.00000000	          0.00000000	          0.00000000	
          1.28100000	        -59.44824300	        605.60319100	        -50.33799900	         -0.13645200	          0.00600000	         -0.33103000	          0.00000000	         -9.80288900	          0.00000000	        -40.02046600	        657.92888100	         75.21860900	         -0.08884100	          0.00600000	         -0.81757700	          0.00000000	          0.40498500	          0.00000000	          0.00000000	          0.00000000	          0.00000000	          0.00000000	          0.00000000	          0.00000000	          0.00000000	          0.00000000	          0.00000000	
          1.28150000	        -59.56821600	        604.07146900	        -50.12039200	         -0.13641200	          0.00600000	         -0.33109000	          0.00000000	         -9.81662600	          0.00000000	        -40.45469100	        657.76569600	         75.00218200	         -0.08878300	          0.00600000	         -0.81757400	          0.00000000	          0.44226800	          0.00000000	          0.00000000	          0.00000000	          0.00000000	          0.00000000	          0.00000000	          0.00000000	          0.00000000	          0.00000000	          0.00000000	
          1.28200000	        -59.68130200	        602.56225300	        -49.90888200	         -0.13637300	          0.00600000	         -0.33115000	          0.00000000	         -9.83009600	          0.00000000	        -40.90978900	        657.55556900	         74.78114500	         -0.08872100	          0.00600000	         -0.81757100	          0.00000000	          0.47964900	          0.00000000	          0.00000000	          0.00000000	          0.00000000	          0.00000000	          0.00000000	          0.00000000	          0.00000000	          0.00000000	          0.00000000	
